{
    "asset" : {
        "generator" : "Khronos glTF Blender I/O v0.9.4",
        "version" : "2.0"
    },
    "scene" : 0,
    "scenes" : [
        {
            "name" : "Scene",
            "nodes" : [
                0,
                1,
                2,
                3,
                4,
                5,
                6,
                7
            ]
        }
    ],
    "nodes" : [
        {
            "mesh" : 0,
            "name" : "Straw",
            "rotation" : [
                0,
                0,
                -0.0620584711432457,
                0.9980725049972534
            ],
            "scale" : [
                0.07241503894329071,
                0.09990151971578598,
                0.07241503894329071
            ],
            "translation" : [
                -0.485493004322052,
                0.317399799823761,
                0.004282623529434204
            ]
        },
        {
            "mesh" : 1,
            "name" : "Sticker",
            "scale" : [
                0.660471498966217,
                0.660471498966217,
                0.660471498966217
            ],
            "translation" : [
                0,
                2.7636971473693848,
                0
            ]
        },
        {
            "name" : "Area.003",
            "rotation" : [
                0.43881335854530334,
                -0.5535625219345093,
                0.4350733160972595,
                0.5583211779594421
            ],
            "translation" : [
                -20.142337799072266,
                7.451716423034668,
                -0.08839797973632812
            ]
        },
        {
            "name" : "Area.000",
            "rotation" : [
                0.4385059177875519,
                0.5539568066596985,
                -0.4353831708431244,
                0.557930052280426
            ],
            "translation" : [
                20.101905822753906,
                7.451716423034668,
                -0.014164924621582031
            ]
        },
        {
            "name" : "Area.002",
            "rotation" : [
                0.5722100138664246,
                -0.2968178391456604,
                0.23328441381454468,
                0.7280475497245789
            ],
            "translation" : [
                -10.041629791259766,
                7.451716423034668,
                10.012306213378906
            ]
        },
        {
            "name" : "Area.001",
            "rotation" : [
                0.5709211826324463,
                0.3008088171482086,
                -0.236421138048172,
                0.7264076471328735
            ],
            "translation" : [
                10.001197814941406,
                7.451716423034668,
                10.086539268493652
            ]
        },
        {
            "mesh" : 2,
            "name" : "Bottle",
            "scale" : [
                0.659769594669342,
                0.659769594669342,
                0.659769594669342
            ],
            "translation" : [
                0,
                0.07210684567689896,
                0
            ]
        },
        {
            "name" : "Camera",
            "rotation" : [
                0.5577315092086792,
                -0.01676125079393387,
                0.008853157050907612,
                0.8298049569129944
            ],
            "translation" : [
                -0.17605888843536377,
                6.429633617401123,
                8.3917236328125
            ]
        }
    ],
    "materials" : [
        {
            "name" : "Straw",
            "pbrMetallicRoughness" : {}
        },
        {
            "name" : "Material.003",
            "pbrMetallicRoughness" : {}
        },
        {
            "name" : "Material.002",
            "pbrMetallicRoughness" : {}
        },
        {
            "name" : "Coca Cola",
            "pbrMetallicRoughness" : {}
        }
    ],
    "meshes" : [
        {
            "name" : "Circle.002",
            "primitives" : [
                {
                    "attributes" : {
                        "POSITION" : 0,
                        "NORMAL" : 1
                    },
                    "indices" : 2,
                    "material" : 0
                }
            ]
        },
        {
            "name" : "Circle.001",
            "primitives" : [
                {
                    "attributes" : {
                        "POSITION" : 3,
                        "NORMAL" : 4,
                        "TEXCOORD_0" : 5
                    },
                    "indices" : 6,
                    "material" : 1
                }
            ]
        },
        {
            "name" : "Circle",
            "primitives" : [
                {
                    "attributes" : {
                        "POSITION" : 7,
                        "NORMAL" : 8
                    },
                    "indices" : 9,
                    "material" : 2
                },
                {
                    "attributes" : {
                        "POSITION" : 10,
                        "NORMAL" : 11
                    },
                    "indices" : 12,
                    "material" : 3
                }
            ]
        }
    ],
    "accessors" : [
        {
            "bufferView" : 0,
            "componentType" : 5126,
            "count" : 16,
            "max" : [
                1,
                61.665401458740234,
                1
            ],
            "min" : [
                -1,
                0,
                -1
            ],
            "type" : "VEC3"
        },
        {
            "bufferView" : 1,
            "componentType" : 5126,
            "count" : 16,
            "type" : "VEC3"
        },
        {
            "bufferView" : 2,
            "componentType" : 5123,
            "count" : 48,
            "type" : "SCALAR"
        },
        {
            "bufferView" : 3,
            "componentType" : 5126,
            "count" : 99,
            "max" : [
                1.1692688465118408,
                0.7158546447753906,
                1.1692686080932617
            ],
            "min" : [
                -1.1692688465118408,
                -0.6917407512664795,
                -1.1692688465118408
            ],
            "type" : "VEC3"
        },
        {
            "bufferView" : 4,
            "componentType" : 5126,
            "count" : 99,
            "type" : "VEC3"
        },
        {
            "bufferView" : 5,
            "componentType" : 5126,
            "count" : 99,
            "type" : "VEC2"
        },
        {
            "bufferView" : 6,
            "componentType" : 5123,
            "count" : 384,
            "type" : "SCALAR"
        },
        {
            "bufferView" : 7,
            "componentType" : 5126,
            "count" : 1681,
            "max" : [
                1.2024463415145874,
                8.015190124511719,
                1.2024462223052979
            ],
            "min" : [
                -1.2024462223052979,
                -0.03660132735967636,
                -1.2024461030960083
            ],
            "type" : "VEC3"
        },
        {
            "bufferView" : 8,
            "componentType" : 5126,
            "count" : 1681,
            "type" : "VEC3"
        },
        {
            "bufferView" : 9,
            "componentType" : 5123,
            "count" : 9984,
            "type" : "SCALAR"
        },
        {
            "bufferView" : 10,
            "componentType" : 5126,
            "count" : 514,
            "max" : [
                1.0665241479873657,
                5.873458385467529,
                1.0665243864059448
            ],
            "min" : [
                -1.0665245056152344,
                0.3153550922870636,
                -1.0665243864059448
            ],
            "type" : "VEC3"
        },
        {
            "bufferView" : 11,
            "componentType" : 5126,
            "count" : 514,
            "type" : "VEC3"
        },
        {
            "bufferView" : 12,
            "componentType" : 5123,
            "count" : 3072,
            "type" : "SCALAR"
        }
    ],
    "bufferViews" : [
        {
            "buffer" : 0,
            "byteLength" : 192,
            "byteOffset" : 0
        },
        {
            "buffer" : 0,
            "byteLength" : 192,
            "byteOffset" : 192
        },
        {
            "buffer" : 0,
            "byteLength" : 96,
            "byteOffset" : 384
        },
        {
            "buffer" : 0,
            "byteLength" : 1188,
            "byteOffset" : 480
        },
        {
            "buffer" : 0,
            "byteLength" : 1188,
            "byteOffset" : 1668
        },
        {
            "buffer" : 0,
            "byteLength" : 792,
            "byteOffset" : 2856
        },
        {
            "buffer" : 0,
            "byteLength" : 768,
            "byteOffset" : 3648
        },
        {
            "buffer" : 0,
            "byteLength" : 20172,
            "byteOffset" : 4416
        },
        {
            "buffer" : 0,
            "byteLength" : 20172,
            "byteOffset" : 24588
        },
        {
            "buffer" : 0,
            "byteLength" : 19968,
            "byteOffset" : 44760
        },
        {
            "buffer" : 0,
            "byteLength" : 6168,
            "byteOffset" : 64728
        },
        {
            "buffer" : 0,
            "byteLength" : 6168,
            "byteOffset" : 70896
        },
        {
            "buffer" : 0,
            "byteLength" : 6144,
            "byteOffset" : 77064
        }
    ],
    "buffers" : [
        {
            "byteLength" : 83208,
            "uri" : "data:application/octet-stream;base64,"
        }
    ]
}
