{
    "asset" : {
        "generator" : "Khronos glTF Blender I/O v0.9.4",
        "version" : "2.0"
    },
    "scene" : 0,
    "scenes" : [
        {
            "name" : "Scene",
            "nodes" : [
                1
            ]
        }
    ],
    "nodes" : [
        {
            "mesh" : 0,
            "name" : "Ambulance_mesh.000",
            "rotation" : [
                0.7071067690849304,
                0,
                0,
                0.7071067690849304
            ],
            "scale" : [
                0.00800000037997961,
                0.00800000037997961,
                0.00800000037997961
            ],
            "translation" : [
                0,
                0.3530113399028778,
                0.235359787940979
            ]
        },
        {
            "children" : [
                0
            ],
            "name" : "Lattice",
            "scale" : [
                2.2931528091430664,
                1.1331528425216675,
                2.1531527042388916
            ],
            "translation" : [
                0.5793256163597107,
                0.8854793310165405,
                0.23918181657791138
            ]
        }
    ],
    "materials" : [
        {
            "name" : "blinn1SG",
            "pbrMetallicRoughness" : {}
        }
    ],
    "meshes" : [
        {
            "name" : "ID10.001",
            "primitives" : [
                {
                    "attributes" : {
                        "POSITION" : 0,
                        "NORMAL" : 1,
                        "TANGENT" : 2,
                        "TEXCOORD_0" : 3
                    },
                    "indices" : 4,
                    "material" : 0
                }
            ]
        }
    ],
    "accessors" : [
        {
            "bufferView" : 0,
            "componentType" : 5126,
            "count" : 3736,
            "max" : [
                65.74410247802734,
                142.51100158691406,
                3.8217899799346924
            ],
            "min" : [
                -65.64350128173828,
                -142.51100158691406,
                -138.2169952392578
            ],
            "type" : "VEC3"
        },
        {
            "bufferView" : 1,
            "componentType" : 5126,
            "count" : 3736,
            "type" : "VEC3"
        },
        {
            "bufferView" : 2,
            "componentType" : 5126,
            "count" : 3736,
            "type" : "VEC4"
        },
        {
            "bufferView" : 3,
            "componentType" : 5126,
            "count" : 3736,
            "type" : "VEC2"
        },
        {
            "bufferView" : 4,
            "componentType" : 5123,
            "count" : 5622,
            "type" : "SCALAR"
        }
    ],
    "bufferViews" : [
        {
            "buffer" : 0,
            "byteLength" : 44832,
            "byteOffset" : 0
        },
        {
            "buffer" : 0,
            "byteLength" : 44832,
            "byteOffset" : 44832
        },
        {
            "buffer" : 0,
            "byteLength" : 59776,
            "byteOffset" : 89664
        },
        {
            "buffer" : 0,
            "byteLength" : 29888,
            "byteOffset" : 149440
        },
        {
            "buffer" : 0,
            "byteLength" : 11244,
            "byteOffset" : 179328
        }
    ],
    "buffers" : [
        {
            "byteLength" : 190572,
            "uri" : "data:application/octet-stream;base64,"
        }
    ]
}
